<svg xmlns="http://www.w3.org/2000/svg" viewBox="0 0 429 429"><defs><style>.cls-1{font-size:235px;fill:#fff;font-family:Impact, Impact;letter-spacing:0.02em;}.cls-2{fill:#00a4ff;}</style></defs><title>favicon</title><g id="Layer_2" data-name="Layer 2"><g id="Layer_1-2" data-name="Layer 1"><rect width="429" height="429"/><text class="cls-1" transform="translate(86.11 340.06)">DB</text><path class="cls-2" d="M32,260.5c0,42.63,17.44,77.22,39,77.49V183C49.44,183.28,32,217.87,32,260.5Z"/><path class="cls-2" d="M362.24,183H362V338h.24C383.1,338,400,303.3,400,260.5S383.1,183,362.24,183Z"/><path class="cls-2" d="M216,73.36C144.91,73.36,71,108,41,184l30.73-20c38.27-46,88-70.09,143.53-70.29q4.49,0,8.92.15C276.67,95.89,333,123,360.27,165L391,185C357,110,287.09,73.36,216,73.36Z"/></g></g></svg>