<svg xmlns="http://www.w3.org/2000/svg" viewBox="0 0 584.89 37.44"><defs><style>.cls-1{fill:#fff;}</style></defs><title>title_1</title><g id="Layer_2" data-name="Layer 2"><g id="Layer_1-2" data-name="Layer 1"><path class="cls-1" d="M5.79,28.54l-5.21.17q-.37,0-.47-.14A1.17,1.17,0,0,1,0,28q0-.45.18-.58a1.16,1.16,0,0,1,.64-.13H3.44q.16,0,.33-9t.17-12.5a28.62,28.62,0,0,0-.08-3.49L1,2.34a.71.71,0,0,1-.45-.11C.49,2.17.45,2,.45,1.72a1.29,1.29,0,0,1,.1-.59C.62,1,.77,1,1,1L3.93,1Q5.62,1,8.64.75T13.31.5a16.68,16.68,0,0,1,4,.62,15.43,15.43,0,0,1,4.34,1.83,14.14,14.14,0,0,1,3.37,2.91,13.29,13.29,0,0,1,3,8.83,13.6,13.6,0,0,1-3.37,9.41,13.73,13.73,0,0,1-8.09,4.32,17.72,17.72,0,0,1-3.22.29Zm2-26.49q-.28.11-.28,12.64t0,12.57a13.52,13.52,0,0,0,2.69.13,18.72,18.72,0,0,0,4.63-.57,14.16,14.16,0,0,0,3.66-1.4A8.61,8.61,0,0,0,21,23.28a12.33,12.33,0,0,0,1.52-2.39,10.83,10.83,0,0,0,.77-2.58,21.09,21.09,0,0,0,.35-3.76,13,13,0,0,0-.39-3.31,13.72,13.72,0,0,0-1.11-2.85,12.22,12.22,0,0,0-1.8-2.57,13.29,13.29,0,0,0-2.41-2.09,11.36,11.36,0,0,0-6.51-1.91A18.33,18.33,0,0,0,7.83,2.05Z"/><path class="cls-1" d="M34.84,20.28,31,20.42q-.35,0-.35-.27a3.51,3.51,0,0,1,.27-1q.27-.72.52-.75t3.85-.16L39,18.13q.2,0,.2.43a5,5,0,0,1-.11,1c-.07.36-.17.56-.3.58Z"/><path class="cls-1" d="M47.34,28.54,43,28.67q-.42,0-.54-.16a1.19,1.19,0,0,1-.12-.64q0-.47.17-.58a1.48,1.48,0,0,1,.7-.11h2.13q.12,0,.12-1.6V12.34q0-3.52-.1-6.66a15.62,15.62,0,0,0-.23-3.14l-2.5.09A.8.8,0,0,1,42,2.47a.94.94,0,0,1-.17-.66c0-.33,0-.54.15-.62a1,1,0,0,1,.59-.12l4.84.08,5-.12Q58,1,60.39,3.75a5.88,5.88,0,0,1,1.3,4q0,4.2-6.11,6.48c-.22.09-.33.14-.33.16a1.28,1.28,0,0,0,.43.09l.91.16a13.05,13.05,0,0,1,1.27.34,9.31,9.31,0,0,1,1.42.56,8,8,0,0,1,1.33.87,5.67,5.67,0,0,1,1.17,1.23,6.55,6.55,0,0,1,1.09,3.84q0,7.13-11.6,7.13ZM51.89,14l1.35,0a4.56,4.56,0,0,0,3-1.35A5.46,5.46,0,0,0,58,8.41,6.1,6.1,0,0,0,57.08,5q-1.86-2.9-6.21-2.9a4.89,4.89,0,0,0-1.68.17Q49,2.41,49,11.77v2c0,.13,0,.21.08.23a1.3,1.3,0,0,0,.47,0Zm-2.54,1.15a.29.29,0,0,0-.33.33q0,11.68.29,11.68h2.46q7.26,0,7.26-6a7,7,0,0,0-.82-3.6,4.22,4.22,0,0,0-2.36-1.9,17.71,17.71,0,0,0-5.12-.52Z"/><path class="cls-1" d="M69.68,16.57q0-14-.41-14l-2.38.09a.81.81,0,0,1-.6-.18,1,1,0,0,1-.17-.65q0-.47.18-.6a1.13,1.13,0,0,1,.63-.13l4.76.08L77.64.91Q85,.91,86.4,5.76a7.39,7.39,0,0,1,.29,2,6.2,6.2,0,0,1-.23,1.76,6.08,6.08,0,0,1-.58,1.35A7,7,0,0,1,85,12a9.88,9.88,0,0,1-1,1,10.66,10.66,0,0,1-1.07.78,13,13,0,0,1-1.5.86,4.38,4.38,0,0,0-.63.32,1.51,1.51,0,0,0,.47.19q.48.16,1,.38a11.53,11.53,0,0,1,1.27.64A7.85,7.85,0,0,1,86,18.3a8,8,0,0,1,1,1.63,12.38,12.38,0,0,1,1,4.71,10.33,10.33,0,0,0,.21,2.43.37.37,0,0,0,.25.12h1.88a.54.54,0,0,1,.49.21,1.68,1.68,0,0,1,.14.83q0,.45-.66.45l-5.62-.13a.4.4,0,0,1-.45-.45V25.71a18.59,18.59,0,0,0-.68-6,5.61,5.61,0,0,0-2-2.84,7.81,7.81,0,0,0-4.24-1.16l-3.77,0a.29.29,0,0,0-.33.33q0,2.2.16,6.68a27.08,27.08,0,0,0,.29,4.47H76a.57.57,0,0,1,.46.14,1,1,0,0,1,.11.57,1.17,1.17,0,0,1-.11.6.51.51,0,0,1-.46.17l-4.43-.13-4,.13A.72.72,0,0,1,67,28.5a1.06,1.06,0,0,1-.14-.64q0-.47.17-.58a1.48,1.48,0,0,1,.7-.11h1.77A31.43,31.43,0,0,0,69.68,22ZM73.41,2.3q-.21,0-.21,2.09v10q0,.21.53.21l5.26.08a1.68,1.68,0,0,0,.45,0Q83,13,83,8.58a5.8,5.8,0,0,0-3.18-5.26A7.58,7.58,0,0,0,76,2.22,24.74,24.74,0,0,0,73.41,2.3Z"/><path class="cls-1" d="M95.66,28.54l-3.11.13q-.41,0-.49-.14a1.62,1.62,0,0,1-.08-.65q0-.5.11-.59a1.18,1.18,0,0,1,.62-.1h1.23q.37,0,5.44-12.36l.47-1.12,4.34-10.09a4.35,4.35,0,0,1,.71-1.09,6.18,6.18,0,0,0,.86-1.35q.47-1,.82-1.05a.44.44,0,0,1,.49.37L112,14.31q4.65,12.87,4.92,12.87h1.43c.19,0,.32,0,.37.14a1.31,1.31,0,0,1,.08.58,1.55,1.55,0,0,1-.08.61c-.05.11-.18.17-.37.17l-3.81-.13-4.71.13q-.36,0-.45-.16a1.56,1.56,0,0,1-.08-.65q0-.49.1-.58a1.09,1.09,0,0,1,.6-.1h2.25s0-.1,0-.29a32.87,32.87,0,0,0-1-3.47q-1-3.18-1.51-4.57a12.68,12.68,0,0,0-.57-1.49c-.05-.06-.18-.09-.38-.09h-8.28a1,1,0,0,0-.57.11,1.39,1.39,0,0,0-.3.54q-3.28,8.3-3.32,9.23l0,0h3.15c.23,0,.37,0,.42.13a.94.94,0,0,1,.07.45c0,.21,0,.35,0,.42a2.16,2.16,0,0,1,0,.22.24.24,0,0,1-.08.17.55.55,0,0,1-.38.11ZM108.33,16c.25,0,.37,0,.37-.13a1.45,1.45,0,0,0-.13-.45l-3.39-10Q105,5,105,5t-.27.49l-4,9.84a2.88,2.88,0,0,0-.21.61q0,.1.54.1Z"/><path class="cls-1" d="M126.58,28.54l-5.21.17q-.37,0-.47-.14a1.17,1.17,0,0,1-.1-.59q0-.45.18-.58a1.16,1.16,0,0,1,.64-.13h2.62q.16,0,.33-9t.17-12.5a28.62,28.62,0,0,0-.08-3.49l-2.83.08a.71.71,0,0,1-.45-.11c-.08-.07-.12-.24-.12-.52a1.29,1.29,0,0,1,.1-.59c.07-.12.22-.18.47-.18l2.91,0q1.69,0,4.7-.25T134.11.5a16.68,16.68,0,0,1,4,.62,15.43,15.43,0,0,1,4.34,1.83,14.14,14.14,0,0,1,3.37,2.91,13.29,13.29,0,0,1,3,8.83,13.6,13.6,0,0,1-3.37,9.41,13.73,13.73,0,0,1-8.09,4.32,17.72,17.72,0,0,1-3.22.29Zm2-26.49q-.28.11-.28,12.64t0,12.57a13.52,13.52,0,0,0,2.69.13,18.72,18.72,0,0,0,4.63-.57,14.16,14.16,0,0,0,3.66-1.4,8.61,8.61,0,0,0,2.44-2.14,12.33,12.33,0,0,0,1.52-2.39,10.83,10.83,0,0,0,.77-2.58,21.09,21.09,0,0,0,.35-3.76,13,13,0,0,0-.39-3.31A13.72,13.72,0,0,0,143,8.38a12.22,12.22,0,0,0-1.8-2.57,13.29,13.29,0,0,0-2.41-2.09,11.36,11.36,0,0,0-6.51-1.91A18.33,18.33,0,0,0,128.63,2.05Z"/><path class="cls-1" d="M152.85,9.89a6.91,6.91,0,0,1,.71-.71q2.16-2,2.16-3A1.79,1.79,0,0,0,155,5q-1.29-1.26-1.29-1.85a2.53,2.53,0,0,1,.37-1.24A5.09,5.09,0,0,1,155,.74q.49-.49.77-.49t.82.69a10.07,10.07,0,0,1,1,1.58A3.5,3.5,0,0,1,158,4.07a4.63,4.63,0,0,1-.42,1.68,9.43,9.43,0,0,1-1,1.86q-.6.85-1.23,1.58-1.35,1.55-1.62,1.55a.86.86,0,0,1-.58-.3A.83.83,0,0,1,152.85,9.89Z"/><path class="cls-1" d="M176.3,8.45l.13-2.62q0-.62-1-1.46A15.16,15.16,0,0,0,173.72,3,7,7,0,0,0,170,1.93a4.91,4.91,0,0,0-3.52,1.47,5,5,0,0,0-1.52,3.72,4.42,4.42,0,0,0,1.92,3.69,17.9,17.9,0,0,0,4.24,2,41.9,41.9,0,0,1,4.19,1.73,7.82,7.82,0,0,1,3.51,3.31,6.84,6.84,0,0,1,.69,3.06,7.94,7.94,0,0,1-.53,3,7,7,0,0,1-1.43,2.26,9.11,9.11,0,0,1-2.09,1.63,10.51,10.51,0,0,1-5.27,1.34,19.93,19.93,0,0,1-6.61-1q-1.61-.56-1.64-1t-.15-1.95q-.26-3.48-.26-3.83t0-.43a.47.47,0,0,1,.07-.18q.09-.18.53-.18h.2a.92.92,0,0,1,.59.14.73.73,0,0,1,.19.54l.25,3.85q0,.51,1.33,1.1a15.5,15.5,0,0,0,3,1,13.46,13.46,0,0,0,3,.39,5.47,5.47,0,0,0,2.52-.62,5,5,0,0,0,2-1.75,4.11,4.11,0,0,0,.74-2.27,4.58,4.58,0,0,0-.38-2,4.84,4.84,0,0,0-.92-1.35,6.65,6.65,0,0,0-1.48-1.08,22.11,22.11,0,0,0-2.94-1.4l-2.09-.83-1.27-.55a13.18,13.18,0,0,1-1.27-.64q-.45-.27-1.13-.72a5.94,5.94,0,0,1-1.06-.85q-.38-.4-.84-1a4.51,4.51,0,0,1-.69-1.18,7.78,7.78,0,0,1-.56-2.79,7.59,7.59,0,0,1,.35-2.39,7.13,7.13,0,0,1,1-1.92A8.49,8.49,0,0,1,164,2.72a8.94,8.94,0,0,1,1.83-1.19,9.06,9.06,0,0,1,3.89-1,12.72,12.72,0,0,1,3.14.34,7,7,0,0,1,2.3,1,3.73,3.73,0,0,0,1.21.69q.11,0,.16-.61a1.4,1.4,0,0,1,.16-.72,1.15,1.15,0,0,1,.66-.11,1.36,1.36,0,0,1,.69.11q.15.11.15.59l-.25,6.52a.91.91,0,0,1-.12.57q-.12.14-.64.14a1.22,1.22,0,0,1-.7-.14A.57.57,0,0,1,176.3,8.45Z"/><path class="cls-1" d="M196,28.54l-4.38.13q-.42,0-.54-.16a1.19,1.19,0,0,1-.12-.64q0-.47.17-.58a1.48,1.48,0,0,1,.7-.11h2.13q.12,0,.12-1.6V12.34q0-3.52-.1-6.66a15.62,15.62,0,0,0-.23-3.14l-2.5.09a.8.8,0,0,1-.57-.16.94.94,0,0,1-.17-.66c0-.33,0-.54.15-.62a1,1,0,0,1,.59-.12l4.84.08,5-.12q5.56,0,7.93,2.72a5.88,5.88,0,0,1,1.3,4q0,4.2-6.11,6.48c-.22.09-.33.14-.33.16a1.28,1.28,0,0,0,.43.09l.91.16a13.05,13.05,0,0,1,1.27.34,9.31,9.31,0,0,1,1.42.56,8,8,0,0,1,1.33.87,5.67,5.67,0,0,1,1.17,1.23,6.55,6.55,0,0,1,1.09,3.84q0,7.13-11.6,7.13ZM200.53,14l1.35,0a4.56,4.56,0,0,0,3-1.35,5.46,5.46,0,0,0,1.78-4.3A6.1,6.1,0,0,0,205.71,5q-1.86-2.9-6.21-2.9a4.89,4.89,0,0,0-1.68.17q-.17.11-.17,9.47v2c0,.13,0,.21.08.23a1.3,1.3,0,0,0,.47,0ZM198,15.17a.29.29,0,0,0-.33.33q0,11.68.29,11.68h2.46q7.26,0,7.26-6a7,7,0,0,0-.82-3.6,4.22,4.22,0,0,0-2.36-1.9,17.71,17.71,0,0,0-5.12-.52Z"/><path class="cls-1" d="M220.4,28.54l-5,.13q-.42,0-.54-.16a1.16,1.16,0,0,1-.12-.62q0-.47.16-.58a1.23,1.23,0,0,1,.66-.12h2.5a9.78,9.78,0,0,0,.17-3V20.3l-.17-12.05q0-2.81-.15-4.3a5.45,5.45,0,0,0-.23-1.49h-1.92a.91.91,0,0,1-.56-.12q-.15-.12-.15-.72t.54-.6l1.8.06q1.8.06,2.66.06L230.4,1A19.46,19.46,0,0,0,232.69,1,.26.26,0,0,0,232.9.7l0-.18a2,2,0,0,1,0-.2A.7.7,0,0,1,233,.15c.07-.1.25-.15.55-.15a1.3,1.3,0,0,1,.62.11q.18.11.18.48L234.22,6q0,.29-.16.38a1.5,1.5,0,0,1-.62.08q-.73,0-.73-.62l.12-3.15a26.4,26.4,0,0,0-3.91-.2q-3.91-.09-7-.09-.24,0-.24,3.42t0,5.67a20.05,20.05,0,0,0,.1,2.32s.14.07.31.07h6.85q2.13,0,2.13-.53V11.2q0-.41.76-.41t.76.37l-.08,3.27.08,3.48q0,.37-.76.37t-.76-.41v-2q0-.62-2.13-.62h-7l-.07,0-.05.05a.16.16,0,0,0,0,.09l0,.13s0,2,.12,5.73.19,5.65.33,5.65l12.54-.12c.14,0,.23,0,.26-.12a3.37,3.37,0,0,0,.1-.68q0-.56.13-3.66,0-.37.76-.37t.76.41l-.12,5.74q0,.58-.82.58Z"/><path class="cls-1" d="M255.21,8.45l.13-2.62q0-.62-1-1.46A15.16,15.16,0,0,0,252.63,3a7,7,0,0,0-3.77-1.11,4.91,4.91,0,0,0-3.52,1.47,5,5,0,0,0-1.52,3.72,4.42,4.42,0,0,0,1.92,3.69,17.9,17.9,0,0,0,4.24,2,41.9,41.9,0,0,1,4.19,1.73,7.82,7.82,0,0,1,3.51,3.31,6.84,6.84,0,0,1,.69,3.06,7.94,7.94,0,0,1-.53,3,7,7,0,0,1-1.43,2.26,9.11,9.11,0,0,1-2.09,1.63,10.51,10.51,0,0,1-5.27,1.34,19.93,19.93,0,0,1-6.61-1q-1.61-.56-1.64-1t-.15-1.95q-.26-3.48-.26-3.83t0-.43a.47.47,0,0,1,.07-.18q.09-.18.53-.18h.2a.92.92,0,0,1,.59.14.73.73,0,0,1,.19.54l.25,3.85q0,.51,1.33,1.1a15.5,15.5,0,0,0,3,1,13.46,13.46,0,0,0,3,.39,5.47,5.47,0,0,0,2.52-.62,5,5,0,0,0,2-1.75,4.11,4.11,0,0,0,.74-2.27,4.58,4.58,0,0,0-.38-2,4.84,4.84,0,0,0-.92-1.35A6.65,6.65,0,0,0,252,18.53a22.11,22.11,0,0,0-2.94-1.4L247,16.3l-1.27-.55a13.18,13.18,0,0,1-1.27-.64q-.45-.27-1.13-.72a5.94,5.94,0,0,1-1.06-.85q-.38-.4-.84-1a4.51,4.51,0,0,1-.69-1.18,7.78,7.78,0,0,1-.56-2.79,7.59,7.59,0,0,1,.35-2.39,7.13,7.13,0,0,1,1-1.92,8.49,8.49,0,0,1,1.46-1.57,8.94,8.94,0,0,1,1.83-1.19,9.06,9.06,0,0,1,3.89-1,12.72,12.72,0,0,1,3.14.34,7,7,0,0,1,2.3,1,3.73,3.73,0,0,0,1.21.69q.11,0,.16-.61a1.4,1.4,0,0,1,.16-.72,1.15,1.15,0,0,1,.66-.11,1.36,1.36,0,0,1,.69.11q.15.11.15.59l-.25,6.52a.91.91,0,0,1-.12.57q-.12.14-.64.14a1.22,1.22,0,0,1-.7-.14A.57.57,0,0,1,255.21,8.45Z"/><path class="cls-1" d="M261.38,6.55a1.57,1.57,0,0,1-.74.09q-.63,0-.63-.45s0-.33.12-.92q.42-3,.49-3.91a2.57,2.57,0,0,1,.21-1.1,1.1,1.1,0,0,1,.71-.14q.57,0,.57.37V.91q0,.2,4.3.2H281q4.34,0,4.36-.36a.7.7,0,0,1,.16-.49A.65.65,0,0,1,286,.13h.42a.79.79,0,0,1,.23.06q.21.08.21.5l-.17,5.54c0,.19,0,.31-.15.35a1.9,1.9,0,0,1-.6.06,1.08,1.08,0,0,1-.61-.12.53.53,0,0,1-.16-.45l.12-3.28q0-.29-4.51-.29h-4.71q-.26,0-.29,3t0,3.36l-.25,15.79a15.15,15.15,0,0,0,.08,2.54h2.91a.57.57,0,0,1,.46.14,1,1,0,0,1,.11.57,1.18,1.18,0,0,1-.11.6.52.52,0,0,1-.46.17l-4.91-.13-5,.13c-.27,0-.45-.05-.52-.16a1.29,1.29,0,0,1-.1-.64q0-.48.14-.58a1.29,1.29,0,0,1,.65-.1h2.54q.24,0,.39-8t.15-12.34q0-4.39-.24-4.39H265.7q-3.79,0-3.85.41l-.33,3.16A.75.75,0,0,1,261.38,6.55Z"/><path class="cls-1" d="M312.92,8.45l.13-2.62q0-.62-1-1.46A15.16,15.16,0,0,0,310.34,3a7,7,0,0,0-3.77-1.11,4.91,4.91,0,0,0-3.52,1.47,5,5,0,0,0-1.52,3.72,4.42,4.42,0,0,0,1.92,3.69,17.9,17.9,0,0,0,4.24,2,41.9,41.9,0,0,1,4.19,1.73,7.82,7.82,0,0,1,3.51,3.31,6.84,6.84,0,0,1,.69,3.06,7.94,7.94,0,0,1-.53,3,7,7,0,0,1-1.43,2.26A9.11,9.11,0,0,1,312,27.82a10.51,10.51,0,0,1-5.27,1.34,19.93,19.93,0,0,1-6.61-1q-1.61-.56-1.64-1t-.15-1.95q-.26-3.48-.26-3.83t0-.43a.47.47,0,0,1,.07-.18q.09-.18.53-.18h.2a.92.92,0,0,1,.59.14.73.73,0,0,1,.19.54l.25,3.85q0,.51,1.33,1.1a15.5,15.5,0,0,0,3,1,13.46,13.46,0,0,0,3,.39,5.47,5.47,0,0,0,2.52-.62,5,5,0,0,0,2-1.75,4.11,4.11,0,0,0,.74-2.27,4.58,4.58,0,0,0-.38-2,4.84,4.84,0,0,0-.92-1.35,6.65,6.65,0,0,0-1.48-1.08,22.11,22.11,0,0,0-2.94-1.4l-2.09-.83-1.27-.55a13.18,13.18,0,0,1-1.27-.64q-.45-.27-1.13-.72a5.94,5.94,0,0,1-1.06-.85q-.38-.4-.84-1a4.51,4.51,0,0,1-.69-1.18,7.78,7.78,0,0,1-.56-2.79,7.59,7.59,0,0,1,.35-2.39,7.13,7.13,0,0,1,1-1.92,8.49,8.49,0,0,1,1.46-1.57,8.94,8.94,0,0,1,1.83-1.19,9.06,9.06,0,0,1,3.89-1,12.72,12.72,0,0,1,3.14.34,7,7,0,0,1,2.3,1,3.73,3.73,0,0,0,1.21.69q.11,0,.16-.61a1.4,1.4,0,0,1,.16-.72,1.15,1.15,0,0,1,.66-.11,1.36,1.36,0,0,1,.69.11q.15.11.15.59l-.25,6.52a.91.91,0,0,1-.12.57q-.12.14-.64.14a1.22,1.22,0,0,1-.7-.14A.57.57,0,0,1,312.92,8.45Z"/><path class="cls-1" d="M320.72,22.85a12.36,12.36,0,0,1-1.49-3.39,15.14,15.14,0,0,1-.54-4.09,16.69,16.69,0,0,1,.52-4.18,14.46,14.46,0,0,1,1.44-3.61,14.18,14.18,0,0,1,2.22-2.92,13.09,13.09,0,0,1,2.85-2.2,14,14,0,0,1,7-1.83,12.44,12.44,0,0,1,9.74,4.25,14.92,14.92,0,0,1,3.58,10.26,15.06,15.06,0,0,1-1,5.65,12.67,12.67,0,0,1-2.87,4.39A12.86,12.86,0,0,1,337.76,28a13.6,13.6,0,0,1-4.93,1,16.87,16.87,0,0,1-4-.4,14.78,14.78,0,0,1-3.13-1.16A12.22,12.22,0,0,1,323,25.5,13.52,13.52,0,0,1,320.72,22.85Zm2.08-8.4a20,20,0,0,0,.41,4,15.26,15.26,0,0,0,1.22,3.66A12.08,12.08,0,0,0,326.37,25a7.56,7.56,0,0,0,5.83,2.58,8.63,8.63,0,0,0,7.43-4.06,15,15,0,0,0,2.45-8.77A17.62,17.62,0,0,0,341,8.69a11.14,11.14,0,0,0-3.22-4.75A8.07,8.07,0,0,0,332.35,2q-5,0-7.85,5.25A14.81,14.81,0,0,0,322.8,14.44Z"/><path class="cls-1" d="M353.38,28.54l-3.44.13q-.41,0-.51-.16a1.34,1.34,0,0,1-.1-.64q0-.48.13-.58a1.26,1.26,0,0,1,.64-.1H352q.27,0,.32-1.79t.11-4.17q.26-8.85.26-18.89H350a.57.57,0,0,1-.46-.14,1,1,0,0,1-.11-.57,1.17,1.17,0,0,1,.11-.6A.51.51,0,0,1,350,.86l4.59.13,2.25-.13a1,1,0,0,1,.26,0l.12,0,.09,0,.08.06.08.08.08.09.09.12.1.13L374.42,21.9q.48.6.58.5a1.33,1.33,0,0,0,.12-.75V19.93L375,4.51q0-2.17,0-2.17h-3.81c-.23,0-.37,0-.42-.12a.94.94,0,0,1-.08-.45c0-.21,0-.35,0-.42a2.16,2.16,0,0,1,0-.22.27.27,0,0,1,.07-.17.59.59,0,0,1,.39-.11l4.42.13,3.48-.13q.41,0,.5.16a1.55,1.55,0,0,1,.09.64q0,.48-.15.58a1.41,1.41,0,0,1-.67.1H377a7.74,7.74,0,0,0-.17,2.55q0,2.55-.14,8.33t-.25,10.38q-.13,4.59-.12,4.66,0,1-.54,1a.68.68,0,0,1-.51-.32l-.3-.38L354.57,3.82c-.14-.16-.24-.23-.29-.21a52.28,52.28,0,0,0-.11,5.46l0,14.06a19.37,19.37,0,0,0,.16,4.05h3.52c.23,0,.37,0,.42.13a1.07,1.07,0,0,1,.08.51,4.53,4.53,0,0,1,0,.53q-.05.32-.48.32Z"/><path class="cls-1" d="M408.86,21.77l0,3.65q0,.63-2.43,1.75a21.34,21.34,0,0,1-9,2.1,15.59,15.59,0,0,1-8.39-2.2,12.37,12.37,0,0,1-5.35-7,17.23,17.23,0,0,1-.78-5.27,16.16,16.16,0,0,1,.76-5.12,12.4,12.4,0,0,1,2.13-4A13.31,13.31,0,0,1,389,2.89,16.28,16.28,0,0,1,397.91.54,14.24,14.24,0,0,1,406.24,3q.49.38.49,0v-1a.75.75,0,0,1,.14-.53.94.94,0,0,1,.62-.13,1.35,1.35,0,0,1,.69.13.58.58,0,0,1,.21.53l-.13,7.59q0,.38-.16.5a1.28,1.28,0,0,1-.67.12,1.47,1.47,0,0,1-.68-.1.46.46,0,0,1-.17-.43l.17-3.36q0-.48-1.78-1.9a11.25,11.25,0,0,0-7.2-2.44,8.91,8.91,0,0,0-4.1,1,10.24,10.24,0,0,0-3.31,2.68,13,13,0,0,0-2.2,4.09,14.83,14.83,0,0,0-.81,4.78,16.5,16.5,0,0,0,.53,4.33,13.35,13.35,0,0,0,3.91,6.44,9.81,9.81,0,0,0,6.8,2.61,10.65,10.65,0,0,0,5.56-1.27q1-.59,1-.91.12-1.05.12-3.58T405,19.52h-3.57q-.45,0-.45-.74t.41-.74l5.5.12,3.69-.12q.45,0,.45.74t-.45.74h-1.27c-.17,0-.29.17-.34.5A13.73,13.73,0,0,0,408.86,21.77Z"/><path class="cls-1" d="M429.68,8.45l.13-2.62q0-.62-1-1.46A15.16,15.16,0,0,0,427.1,3a7,7,0,0,0-3.77-1.11A4.91,4.91,0,0,0,419.8,3.4a5,5,0,0,0-1.52,3.72,4.42,4.42,0,0,0,1.92,3.69,17.9,17.9,0,0,0,4.24,2,41.9,41.9,0,0,1,4.19,1.73,7.82,7.82,0,0,1,3.51,3.31,6.84,6.84,0,0,1,.69,3.06,7.94,7.94,0,0,1-.53,3,7,7,0,0,1-1.43,2.26,9.11,9.11,0,0,1-2.09,1.63,10.51,10.51,0,0,1-5.27,1.34,19.93,19.93,0,0,1-6.61-1q-1.61-.56-1.64-1t-.15-1.95q-.26-3.48-.26-3.83t0-.43a.47.47,0,0,1,.07-.18q.09-.18.53-.18h.2a.92.92,0,0,1,.59.14.73.73,0,0,1,.19.54l.25,3.85q0,.51,1.33,1.1a15.5,15.5,0,0,0,3,1,13.46,13.46,0,0,0,3,.39,5.47,5.47,0,0,0,2.52-.62,5,5,0,0,0,2-1.75,4.11,4.11,0,0,0,.74-2.27,4.58,4.58,0,0,0-.38-2,4.84,4.84,0,0,0-.92-1.35,6.65,6.65,0,0,0-1.48-1.08,22.11,22.11,0,0,0-2.94-1.4l-2.09-.83-1.27-.55a13.18,13.18,0,0,1-1.27-.64q-.45-.27-1.13-.72a5.94,5.94,0,0,1-1.06-.85q-.38-.4-.84-1a4.51,4.51,0,0,1-.69-1.18,7.78,7.78,0,0,1-.56-2.79A7.59,7.59,0,0,1,415,6.21a7.13,7.13,0,0,1,1-1.92,8.49,8.49,0,0,1,1.46-1.57,8.94,8.94,0,0,1,1.83-1.19,9.06,9.06,0,0,1,3.89-1,12.72,12.72,0,0,1,3.14.34,7,7,0,0,1,2.3,1,3.73,3.73,0,0,0,1.21.69q.11,0,.16-.61a1.4,1.4,0,0,1,.16-.72,1.15,1.15,0,0,1,.66-.11,1.36,1.36,0,0,1,.69.11q.15.11.15.59l-.25,6.52a.91.91,0,0,1-.12.57q-.12.14-.64.14a1.22,1.22,0,0,1-.7-.14A.57.57,0,0,1,429.68,8.45Z"/><path class="cls-1" d="M446.08,22.85a12.36,12.36,0,0,1-1.49-3.39,15.14,15.14,0,0,1-.54-4.09,16.69,16.69,0,0,1,.52-4.18A14.46,14.46,0,0,1,446,7.57a14.18,14.18,0,0,1,2.22-2.92,13.09,13.09,0,0,1,2.85-2.2,14,14,0,0,1,7-1.83,12.44,12.44,0,0,1,9.74,4.25,14.92,14.92,0,0,1,3.58,10.26,15.06,15.06,0,0,1-1,5.65,12.67,12.67,0,0,1-2.87,4.39A12.86,12.86,0,0,1,463.13,28a13.6,13.6,0,0,1-4.93,1,16.87,16.87,0,0,1-4-.4,14.78,14.78,0,0,1-3.13-1.16,12.22,12.22,0,0,1-2.78-1.93A13.52,13.52,0,0,1,446.08,22.85Zm2.08-8.4a20,20,0,0,0,.41,4,15.26,15.26,0,0,0,1.22,3.66A12.08,12.08,0,0,0,451.73,25a7.56,7.56,0,0,0,5.83,2.58A8.63,8.63,0,0,0,465,23.53a15,15,0,0,0,2.45-8.77,17.62,17.62,0,0,0-1.06-6.08,11.14,11.14,0,0,0-3.22-4.75A8.07,8.07,0,0,0,457.72,2q-5,0-7.85,5.25A14.81,14.81,0,0,0,448.17,14.44Z"/><path class="cls-1" d="M477.85,20.3l-.16-12.05q0-2.81-.15-4.3a5.45,5.45,0,0,0-.23-1.49H475.5q-.66,0-.74-.24a1.63,1.63,0,0,1-.08-.49q0-.7.53-.7l1.8.06q1.8.06,2.66.06L490.31,1q2,0,2.28,0A.39.39,0,0,0,493,.58q0-.38.17-.48a1,1,0,0,1,.53-.1,1.13,1.13,0,0,1,.58.12.51.51,0,0,1,.19.47L494.24,6q0,.29-.16.38a1.47,1.47,0,0,1-.61.08q-.74,0-.74-.62l.12-3.19q-1.75-.25-11.36-.25-.24,0-.24,4.53t0,5.71a8.67,8.67,0,0,0,.07,1.21,1.58,1.58,0,0,0,.5,0H489q2.13,0,2.13-.53V11.16q0-.37.82-.37.56,0,.63.1a.38.38,0,0,1,.07.22l-.09,3.32.09,3.93q0,.33-.76.33t-.76-.37V15.84q0-.48-.7-.55a14.28,14.28,0,0,0-1.44-.07h-7.1q-.42,0-.48.07a6.81,6.81,0,0,0,0,1.34q0,1.27.05,4.39.07,6.17.18,6.17h3.31a.59.59,0,0,1,.47.14,1,1,0,0,1,.11.57,1.18,1.18,0,0,1-.11.6.53.53,0,0,1-.47.17L480,28.54l-4.3.13c-.27,0-.45-.05-.52-.16a1.27,1.27,0,0,1-.1-.64c0-.32.06-.51.17-.58a1.49,1.49,0,0,1,.7-.11h1.72q.21,0,.21-3Z"/><path class="cls-1" d="M507.15,28.54q-.78,0-.78-.57a1.07,1.07,0,0,1,.47-.72q.47-.4,1.1-.87t1.29-.91q.66-.44,1.43-1t1.47-1.13a13.57,13.57,0,0,0,1.36-1.26,10.55,10.55,0,0,0,1.13-1.41,5.9,5.9,0,0,0,1.06-3.34,3.86,3.86,0,0,0-.92-2.74,3.14,3.14,0,0,0-2.41-1q-2.21,0-5,2.28-.31.26-.4.26t-.41-.37a1,1,0,0,1-.32-.61q0-.24.69-.82a14.21,14.21,0,0,1,1.69-1.18,9.27,9.27,0,0,1,4.78-1.53,5.16,5.16,0,0,1,3.79,1.52,5.1,5.1,0,0,1,1.53,3.77q0,3.9-7.88,8.68c-.22.13-.33.21-.33.25s.23.06.7.06h8.57a6.41,6.41,0,0,0,.8-1.39,11,11,0,0,1,.76-1.39,2.19,2.19,0,0,1,.54.11c.24.07.37.14.37.21s-.38,1.8-1.15,4.76q-.1.32-.57.32Z"/><path class="cls-1" d="M528.93,26.33a8.41,8.41,0,0,1-1.65-2.58,8.09,8.09,0,0,1-.62-3.13,8,8,0,0,1,.63-3.14A7.56,7.56,0,0,1,529,15a7.91,7.91,0,0,1,5.7-2.24,7.55,7.55,0,0,1,5.89,2.37,8.08,8.08,0,0,1,2.07,5.63,7.63,7.63,0,0,1-2.38,5.79,8.1,8.1,0,0,1-5.82,2.25,7.26,7.26,0,0,1-3-.66A7.86,7.86,0,0,1,528.93,26.33Zm1.22-9.94a6,6,0,0,0-1.88,4.54,5.28,5.28,0,0,0,.84,2.83,5.81,5.81,0,0,0,5.31,2.77q3.84,0,5.5-2.64a6.34,6.34,0,0,0,1-3.44,5.36,5.36,0,0,0-.9-3.16,6,6,0,0,0-2.35-2,6.59,6.59,0,0,0-7.5,1.08Z"/><path class="cls-1" d="M555.2,28.54l-3.77.08c-.23,0-.37,0-.42-.15a1.24,1.24,0,0,1-.08-.52.91.91,0,0,1,.12-.53q.11-.16.51-.16h1.84q.29,0,.29-.37,0-1.19,0-3.6V19.64q0-3.59,0-4.66t0-1.2c0-.09,0-.14-.08-.14h-2.05c-.3,0-.45-.22-.45-.68s.15-.67.45-.67l3.85.08,3.81-.08q.4,0,.43.3a2.36,2.36,0,0,1,0,.36c0,.16,0,.26,0,.33a.66.66,0,0,1-.06.2q-.08.17-.5.17h-2s-.06,0-.06.1,0,.57-.07,1.4-.07,2.8-.07,5.93,0,4.92,0,5.38a2.58,2.58,0,0,0,.07.74s.14.05.32.05h1.64q.57,0,.57.68t-.57.68Z"/><path class="cls-1" d="M568.73,17.06s.06-.72.2-2,.22-2.22.28-2.78a2.54,2.54,0,0,1,.19-1q.11-.13.58-.13t.57.13a.85.85,0,0,1,.11.53V12a51.09,51.09,0,0,0,6.61.16h6.81q.82,0,.82.49a21.85,21.85,0,0,1-1.06,2.09q-1.06,2-4.37,8.45-7.3,14.22-7.58,14.22a1.92,1.92,0,0,1-1-.41,1.11,1.11,0,0,1-.6-.86q0-.24,5.59-9.87l6-10.25.43-.74.1-.17a.62.62,0,0,0,.09-.25c0-.06-.07-.08-.2-.08h-8.51q-3.42,0-3.48.41l-.24,2c0,.21-.25.32-.66.32S568.73,17.36,568.73,17.06Z"/></g></g></svg>