<svg xmlns="http://www.w3.org/2000/svg" viewBox="0 0 78 78"><defs><style>.cls-1{fill:none;}.cls-2{fill:#00a4ff;}</style></defs><title>logo_no-bkgd</title><g id="Layer_2" data-name="Layer 2"><g id="Layer_1-2" data-name="Layer 1"><rect class="cls-1" width="78" height="78"/><path d="M17.41,28.05H24a40.89,40.89,0,0,1,8.61.58A6.6,6.6,0,0,1,36,30.56a6.08,6.08,0,0,1,1.46,3A45,45,0,0,1,37.75,40V51.79a27.49,27.49,0,0,1-.43,6.08,4.57,4.57,0,0,1-1.49,2.4,6.2,6.2,0,0,1-2.63,1.21,23.75,23.75,0,0,1-4.72.34H17.41Zm8.78,5.78V56q1.9,0,2.34-.76T29,51.15V38a17.64,17.64,0,0,0-.15-2.94,1.4,1.4,0,0,0-.67-.95A4.34,4.34,0,0,0,26.19,33.83Z"/><path d="M41.88,28.05h8.76a23.11,23.11,0,0,1,6.29.65,6.24,6.24,0,0,1,3.45,2.62q1.31,2,1.31,6.35,0,3-.93,4.13a6.47,6.47,0,0,1-3.66,1.79,6.5,6.5,0,0,1,4.13,2.29,8.82,8.82,0,0,1,1.08,4.9V53.9A12.44,12.44,0,0,1,61.54,59a4.22,4.22,0,0,1-2.49,2.25q-1.71.61-7,.61H41.88Zm8.78,5.78v7.51l.88,0q1.29,0,1.65-.64A10.42,10.42,0,0,0,53.54,37a5.89,5.89,0,0,0-.29-2.22,1.4,1.4,0,0,0-.76-.8A6.78,6.78,0,0,0,50.66,33.83Zm0,12.77V56A3.75,3.75,0,0,0,53,55.47a4.1,4.1,0,0,0,.51-2.57V49.75q0-2.17-.46-2.63A4.12,4.12,0,0,0,50.66,46.6Z"/><path class="cls-2" d="M5.82,47.36c0,7.75,3.17,14,7.09,14.09V33.28C9,33.32,5.82,39.61,5.82,47.36Z"/><path class="cls-2" d="M65.86,33.27h0V61.45h0c3.79,0,6.86-6.31,6.86-14.09S69.65,33.27,65.86,33.27Z"/><path class="cls-2" d="M39.27,13.34c-12.93,0-26.36,6.3-31.82,20.12L13,29.82C20,21.45,29,17.07,39.14,17l1.62,0c9.54.37,19.78,5.3,24.74,12.93l5.59,3.64C64.91,20,52.2,13.34,39.27,13.34Z"/></g></g></svg>