<svg xmlns="http://www.w3.org/2000/svg" viewBox="0 0 29.5 20.05"><defs><style>.cls-1{fill:#fff;}</style></defs><title>off</title><g id="Layer_2" data-name="Layer 2"><g id="Layer_1-2" data-name="Layer 1"><path class="cls-1" d="M13.15.33,7.1,5H1.32A1.32,1.32,0,0,0,0,6.29v7.48a1.32,1.32,0,0,0,1.32,1.32H7.1l6.05,4.64a1.55,1.55,0,0,0,2.52-1.11V1.44A1.55,1.55,0,0,0,13.15.33Z"/><path class="cls-1" d="M20.81,6.67,24.17,10l-3.36,3.36a.45.45,0,0,0,0,.64l.28.28a.45.45,0,0,0,.64,0l3.36-3.36,3.36,3.36a.45.45,0,0,0,.64,0l.28-.28a.45.45,0,0,0,0-.64L26,10l3.36-3.36a.45.45,0,0,0,0-.64l-.28-.28a.45.45,0,0,0-.64,0L25.09,9.11,21.73,5.75a.45.45,0,0,0-.64,0L20.81,6A.45.45,0,0,0,20.81,6.67Z"/></g></g></svg>