<svg xmlns="http://www.w3.org/2000/svg" viewBox="0 0 28.84 19.83"><defs><style>.cls-1{fill:#fff;}</style></defs><title>on</title><g id="Layer_2" data-name="Layer 2"><g id="Layer_1-2" data-name="Layer 1"><path class="cls-1" d="M13,.33,7,4.92H1.3A1.3,1.3,0,0,0,0,6.22v7.4a1.3,1.3,0,0,0,1.3,1.3H7l6,4.59a1.54,1.54,0,0,0,2.49-1.1v-17A1.54,1.54,0,0,0,13,.33Z"/><path class="cls-1" d="M21.71,12.89a.84.84,0,0,1-.78.53H20.1l1.28-3.19a.84.84,0,0,0,0-.62L20.1,6.42h.83a.84.84,0,0,1,.78.53l1.07,2.66a.84.84,0,0,1,0,.62Z"/><path class="cls-1" d="M24.71,14.59c-.13.5-.44.83-.78.83H23.1l1.28-5a2,2,0,0,0,0-1l-1.28-5h.83c.34,0,.65.33.78.83l1.07,4.18a2,2,0,0,1,0,1Z"/><path class="cls-1" d="M27.71,15.36c-.13.64-.44,1.05-.78,1.05H26.1L27.38,10a3.26,3.26,0,0,0,0-1.24L26.1,2.42h.83c.34,0,.65.42.78,1.05l1.07,5.33a3.26,3.26,0,0,1,0,1.24Z"/></g></g></svg>